<?xml version="1.0" encoding="utf-8"?>
<!-- Generator: Adobe Illustrator 24.0.0, SVG Export Plug-In . SVG Version: 6.00 Build 0)  -->
<svg version="1.1" id="svg388" xmlns:svg="http://www.w3.org/2000/svg"
	 xmlns="http://www.w3.org/2000/svg" xmlns:xlink="http://www.w3.org/1999/xlink" x="0px" y="0px" viewBox="0 0 134.9 31.3"
	 style="enable-background:new 0 0 134.9 31.3;" xml:space="preserve">
<style type="text/css">
	.st0{fill:#FFFFFF;}
</style>
<g>
	<path class="st0" d="M23.1,15.8l-0.3-0.3l-0.1,0.1c0.1,0.2,0.1,0.3,0.1,0.4L23.1,15.8z"/>
	<g>
		<path class="st0" d="M3,11.5l0.2-0.7l1,0.5c0,0-1.6,4.4-0.3,7.5l0.8-0.1c-0.3-1-0.5-2-0.5-3.1c0-5,3.5-9.2,8-10.4l-0.1-0.3
			l0.8-0.2l-0.2-1.6c0,0,4.1-0.7,7.7,1l0.1-0.7C18.8,2.6,17,2.2,15,2.2c-6,0-11,3.8-12.8,9L3,11.5z"/>
		<path class="st0" d="M17.4,28.2l-0.7,0.1l-0.1-1c0,0,4.6-0.8,6.6-3.5L22.7,23c-0.7,0.7-1.5,1.4-2.5,1.9c-4.4,2.5-9.7,1.7-13.1-1.8
			l-0.3,0.2l-0.4-0.6l-1.3,1.1c0,0-2.7-3.2-3-7.2l-0.6,0.2c0.2,1.9,0.7,3.7,1.7,5.5c3,5.1,8.8,7.6,14.2,6.5V28.2z"/>
		<path class="st0" d="M24.6,7.3l0.5,0.5l-0.8,0.6c0,0-3.1-3.5-6.4-4l-0.4,0.8c1,0.2,2,0.6,2.9,1.1c4.4,2.5,6.3,7.6,5,12.2l0.3,0.1
			l-0.3,0.8l1.6,0.7c0,0-1.5,4-4.8,6.2l0.5,0.4c1.6-1.1,2.8-2.5,3.8-4.3c3-5.2,2.2-11.3-1.3-15.5L24.6,7.3z"/>
	</g>
	<g>
		<path class="st0" d="M16.5,10.6l-4.1-4.1C10,7.1,8.1,8.6,6.8,10.6h6H16.5z"/>
		<path class="st0" d="M9.8,14.1l-4.1,4.1c0.7,2.3,2.2,4.3,4.1,5.6v-6V14.1z"/>
		<path class="st0" d="M20,17.3l4.1-4.1C23.5,10.8,22,8.8,20,7.6v6V17.3z"/>
		<path class="st0" d="M20,17.9l-2.6,2.6h5.9c0.8-1.4,1.3-3,1.3-4.7c0-0.7-0.1-1.4-0.2-2.2L20,17.9L20,17.9z"/>
		<path class="st0" d="M19.6,7.3c-1.4-0.8-3-1.3-4.7-1.3c-0.7,0-1.4,0.1-2.1,0.2l6.8,6.8L19.6,7.3L19.6,7.3z"/>
		<path class="st0" d="M10.2,24c1.4,0.8,3,1.3,4.7,1.3c0.7,0,1.4-0.1,2.1-0.2l-6.8-6.8V24z"/>
		<path class="st0" d="M6.6,10.9c-0.8,1.4-1.3,3-1.3,4.7c0,0.7,0.1,1.4,0.2,2.1l6.8-6.8L6.6,10.9L6.6,10.9z"/>
		<path class="st0" d="M13.3,20.8l4.1,4.1c2.3-0.7,4.3-2.2,5.6-4.1h-6H13.3z"/>
	</g>
</g>
<g>
	<path class="st0" d="M48.9,6.3c0,6.4-1.9,12.5-9.3,16.6l-1.3-1.6c3.8-2.1,6-4.7,7.2-7.6l-6.9,0.7l-0.3-1.9l7.8-0.5
		c0.3-1.2,0.5-2.5,0.6-3.8h-7.2V6.4L48.9,6.3L48.9,6.3z M59,3.4V28h-2.1V15.2h-3.3v11.6h-2.1V4h2.1v9.3h3.3V3.4H59z"/>
	<path class="st0" d="M70.9,11.3c0,4.1,2.8,8.1,6.5,9.7l-1.3,1.8c-2.8-1.3-5.1-3.9-6.3-7.2c-1.1,3.4-3.4,6.2-6.2,7.6l-1.3-1.7
		c3.6-1.7,6.4-5.9,6.4-10.2V9.4H63V7.6h5.7V3.8H71v3.8h5.6v1.8H71L70.9,11.3L70.9,11.3z M82,3.4V28h-2.3V3.4H82z"/>
	<path class="st0" d="M107.9,22.8v1.8H85.7v-1.8h8.7v-6.4h2.2v6.4H107.9z M103,11.7c0.1-1.3,0.1-2.5,0.1-3.6V7.6H88.4V5.8H104h1.3
		v2.3c0,3,0,6.4-1,11.4l-2.2-0.3c0.5-2.2,0.7-4.1,0.9-5.8l-14.8,0.8l-0.3-1.9L103,11.7z"/>
	<path class="st0" d="M131.8,22.8v1.9h-22.3v-1.9H131.8z M129.2,17h-16.9V5.6h16.6v1.9h-14.4v7.7h14.6L129.2,17L129.2,17z"/>
</g>
</svg>
