<?xml version="1.0" encoding="utf-8"?>
<!-- Generator: Adobe Illustrator 24.0.0, SVG Export Plug-In . SVG Version: 6.00 Build 0)  -->
<svg version="1.1" id="svg388" xmlns:svg="http://www.w3.org/2000/svg"
	 xmlns="http://www.w3.org/2000/svg" xmlns:xlink="http://www.w3.org/1999/xlink" x="0px" y="0px" viewBox="0 0 58.7 20.8"
	 style="enable-background:new 0 0 58.7 20.8;" xml:space="preserve">
<style type="text/css">
	.st0{fill:#FFFFFF;}
	.st1{fill:#FFFFFF;stroke:#FFFFFF;stroke-miterlimit:10;}
</style>
<path class="st0" d="M43,20.5v-20h7c1.4,0,2.8,0.2,4,0.6c1.3,0.4,2.2,1.1,2.9,2C57.7,4.1,58,5.3,58,7c0,1.5-0.4,2.9-1.1,3.8
	S55.2,12.5,54,13c-1.3,0.5-2.5,0.8-3.9,0.8 M47.8,10.1h2.1c1.2,0,2-0.3,2.6-0.8C53.1,8.7,53.4,8,53.4,7s-0.3-1.7-1-2.1
	s-1.5-0.6-2.7-0.6h-1.9L47.8,10.1L47.8,10.1z"/>
<g>
	<path class="st1" d="M-3,10.4"/>
</g>
<g>
	<path class="st1" d="M-3,10.4"/>
</g>
<g>
	<path class="st1" d="M-3,10.4"/>
</g>
<g>
	<path class="st1" d="M-3,10.4"/>
</g>
<path class="st0" d="M30.2,0.9c-3-1.3-6.5,0.1-7.8,3.1c-0.3,0.8-0.5,1.7-0.5,2.5c0,3.5,0,14.1,0,14.1s7.5-7.3,10.1-9.8
	c0.6-0.5,1.1-1.4,1.4-2.1C34.6,5.6,33.2,2.1,30.2,0.9z M26.8,8.8c-1.4-0.6-2-2.2-1.4-3.5c0.6-1.4,2.2-2,3.5-1.4
	c1.4,0.6,2,2.2,1.4,3.5C29.8,8.7,28.2,9.4,26.8,8.8z"/>
<g>
	<path class="st0" d="M0.2,20.5v-20h6.6c1.5,0,2.8,0.2,4,0.6s2.1,1,2.8,2c0.7,0.9,1,2.2,1,3.7s-0.3,2.8-1,3.7
		c-0.7,1-1.6,1.7-2.8,2.2s-2.5,0.7-3.9,0.7H4.2v7.1C4.2,20.5,0.2,20.5,0.2,20.5z M4.2,10.2h2.4C8,10.2,9,9.9,9.7,9.3
		c0.7-0.6,1-1.4,1-2.6s-0.4-2-1.1-2.4C8.9,3.8,7.8,3.6,6.5,3.6H4.2V10.2z"/>
</g>
</svg>
